<svg width="30" height="22" viewBox="0 0 30 22" fill="none" xmlns="http://www.w3.org/2000/svg">
<path d="M0 3.77306C0 1.8104 1.67871 0.219727 3.75 0.219727H26.25C28.3184 0.219727 30 1.8104 30 3.77306V17.9864C30 19.9463 28.3184 21.5397 26.25 21.5397H3.75C1.67871 21.5397 0 19.9463 0 17.9864V3.77306ZM2.8125 3.77306V5.00007L12.9199 12.8618C14.127 13.8057 15.873 13.8057 17.0801 12.8618L27.1875 5.00007V3.72309C27.1875 3.28448 26.7656 2.83476 26.25 2.83476H3.75C3.23203 2.83476 2.8125 3.28448 2.8125 3.72309V3.77306ZM2.8125 8.44791V17.9864C2.8125 18.475 3.23203 18.8747 3.75 18.8747H26.25C26.7656 18.8747 27.1875 18.475 27.1875 17.9864V8.44791L18.8672 14.9216C16.6172 16.6705 13.3828 16.6705 11.0801 14.9216L2.8125 8.44791Z" fill="#CFCFCF"/>
</svg>
